<?xml version="1.0" standalone="no"?>
<!DOCTYPE svg PUBLIC "-//W3C//DTD SVG 20010904//EN"
 "http://www.w3.org/TR/2001/REC-SVG-20010904/DTD/svg10.dtd">
<svg version="1.0" xmlns="http://www.w3.org/2000/svg"
 width="260.000000pt" height="260.000000pt" viewBox="0 0 260.000000 260.000000"
 preserveAspectRatio="xMidYMid meet">
<metadata>
Created by potrace 1.14, written by Peter Selinger 2001-2017
</metadata>
<g transform="translate(0.000000,260.000000) scale(0.100000,-0.100000)"
fill="#000000" stroke="none">
<path d="M0 1300 l0 -1300 1300 0 1300 0 0 1300 0 1300 -1300 0 -1300 0 0
-1300z m1470 875 c10 -12 -17 -182 -140 -877 -160 -910 -162 -918 -202 -867
-10 12 -16 30 -13 43 3 11 70 392 150 846 80 454 150 835 155 848 11 25 32 29
50 7z m-752 -27 c31 -31 30 -32 -589 -809 l-29 -37 316 -397 c259 -326 315
-402 312 -423 -2 -19 -10 -28 -24 -30 -18 -3 -82 73 -353 414 -250 314 -331
423 -329 440 3 25 657 854 674 854 5 0 15 -5 22 -12z m1522 -407 c245 -308
330 -421 329 -440 0 -36 -645 -845 -676 -849 -17 -2 -24 3 -29 22 -3 14 -2 31
2 38 5 7 147 187 317 401 199 250 305 392 300 400 -4 6 -146 186 -315 399
-169 212 -308 395 -308 405 0 23 20 45 38 41 7 -2 161 -189 342 -417z m-260
143 l60 -75 0 -507 0 -507 -62 -77 -61 -78 -334 0 -335 0 6 27 c10 49 226
1274 226 1284 0 5 95 9 220 9 l220 0 60 -76z m-1280 -159 c0 -11 -11 -15 -40
-15 -29 0 -40 4 -40 15 0 11 11 15 40 15 29 0 40 -4 40 -15z m174 0 c4 -12 -6
-15 -59 -15 -51 0 -65 3 -65 15 0 12 13 15 59 15 43 0 60 -4 65 -15z m276 0
c0 -12 -19 -15 -115 -15 -96 0 -115 3 -115 15 0 12 19 15 115 15 96 0 115 -3
115 -15z m-475 -125 c0 -9 -11 -16 -27 -18 -23 -3 -28 1 -28 18 0 17 5 21 28
18 16 -2 27 -9 27 -18z m275 0 c0 -19 -7 -20 -109 -20 -63 0 -112 4 -116 10
-14 23 11 30 116 30 102 0 109 -1 109 -20z m120 0 c0 -16 -7 -20 -35 -20 -28
0 -35 4 -35 20 0 16 7 20 35 20 28 0 35 -4 35 -20z m-320 -125 c0 -12 -14 -15
-65 -15 -51 0 -65 3 -65 15 0 12 14 15 65 15 51 0 65 -3 65 -15z m150 0 c0
-11 -12 -15 -50 -15 -38 0 -50 4 -50 15 0 11 12 15 50 15 38 0 50 -4 50 -15z
m220 0 c0 -12 -16 -15 -85 -15 -69 0 -85 3 -85 15 0 12 16 15 85 15 69 0 85
-3 85 -15z m-470 -125 c0 -11 -7 -20 -15 -20 -15 0 -21 21 -8 33 12 13 23 7
23 -13z m300 0 c0 -19 -7 -20 -125 -20 -118 0 -125 1 -125 20 0 19 7 20 125
20 118 0 125 -1 125 -20z m148 -2 c3 -15 -4 -18 -47 -18 -45 0 -51 3 -51 21 0
18 5 20 47 17 36 -2 49 -7 51 -20z m-298 -123 c0 -12 -17 -15 -90 -15 -73 0
-90 3 -90 15 0 12 17 15 90 15 73 0 90 -3 90 -15z m120 0 c0 -10 -11 -15 -35
-15 -24 0 -35 5 -35 15 0 10 11 15 35 15 24 0 35 -5 35 -15z m250 0 c0 -12
-18 -15 -100 -15 -82 0 -100 3 -100 15 0 12 18 15 100 15 82 0 100 -3 100 -15z
m-470 -125 c0 -17 -7 -20 -40 -20 -27 0 -40 4 -40 13 0 21 11 27 47 27 26 0
33 -4 33 -20z m200 0 c0 -18 -7 -20 -75 -20 -68 0 -75 2 -75 20 0 18 7 20 75
20 68 0 75 -2 75 -20z m120 0 c0 -16 -7 -20 -35 -20 -28 0 -35 4 -35 20 0 16
7 20 35 20 28 0 35 -4 35 -20z m-270 -125 c0 -12 -14 -15 -65 -15 -51 0 -65 3
-65 15 0 12 14 15 65 15 51 0 65 -3 65 -15z m220 0 c0 -12 -16 -15 -85 -15
-69 0 -85 3 -85 15 0 12 16 15 85 15 69 0 85 -3 85 -15z m130 0 c0 -11 -11
-15 -40 -15 -31 0 -38 3 -34 15 4 9 19 15 40 15 24 0 34 -5 34 -15z m-230
-125 c0 -19 -7 -20 -125 -20 -97 0 -125 3 -125 13 0 25 12 27 132 27 111 0
118 -1 118 -20z m273 14 c16 -17 -8 -34 -49 -34 -37 0 -44 3 -44 20 0 17 7 20
43 20 24 0 46 -3 50 -6z m-143 -14 c0 -5 -16 -10 -35 -10 -19 0 -35 5 -35 10
0 6 16 10 35 10 19 0 35 -4 35 -10z"/>
</g>
</svg>
